<?xml version="1.0" encoding="utf-8"?>
<!-- Generator: Adobe Illustrator 16.0.0, SVG Export Plug-In . SVG Version: 6.00 Build 0)  -->
<!DOCTYPE svg PUBLIC "-//W3C//DTD SVG 1.1//EN" "http://www.w3.org/Graphics/SVG/1.1/DTD/svg11.dtd">
<svg version="1.1" id="Layer_1" xmlns="http://www.w3.org/2000/svg" xmlns:xlink="http://www.w3.org/1999/xlink" x="0px" y="0px"
	 width="880.08px" height="205.92px" viewBox="0 0 880.08 205.92" enable-background="new 0 0 880.08 205.92" xml:space="preserve">
<g id="Layer_0_xA0_Image_1_">
	<g>
		<g>
			<polygon stroke="#000000" stroke-miterlimit="10" points="352.28,68.119 376.827,74.119 357.994,92.786 			"/>
			<polygon stroke="#000000" stroke-miterlimit="10" points="383.16,38.119 407.494,43.953 388.994,62.453 			"/>
			<polygon stroke="#000000" stroke-miterlimit="10" points="439.04,20.306 451.993,41.619 425.994,41.619 			"/>
			<polygon stroke="#000000" stroke-miterlimit="10" points="494.659,38.119 488.827,62.453 469.993,44.119 			"/>
			<polygon stroke="#000000" stroke-miterlimit="10" points="501.327,73.953 525.8,68.119 519.659,92.786 			"/>
			<polygon stroke="#000000" stroke-miterlimit="10" points="403.994,66.953 472.827,66.953 502.993,100.466 439.04,180.626 
				374.327,100.466 			"/>
		</g>
		<g>
			<polygon fill="#FFE500" points="408.119,76.286 422.994,76.286 412.306,98.474 388.931,98.474 			"/>
			<polygon fill="#FFE500" points="430.994,76.286 446.993,76.286 457.431,98.474 420.494,98.474 			"/>
			<polygon fill="#FFE500" points="454.993,76.286 469.556,76.286 489.056,98.474 465.556,98.474 			"/>
			<polygon fill="#FFE500" points="463.431,105.849 487.868,105.849 450.743,151.974 			"/>
			<polygon fill="#FFE500" points="422.431,105.849 455.515,105.849 438.961,165.036 			"/>
			<polygon fill="#FFE500" points="389.931,105.849 414.265,105.849 427.181,152.37 			"/>
		</g>
	</g>
</g>
<rect x="14.54" y="97.774" width="280" height="5.383"/>
<rect x="583.54" y="97.774" width="280" height="5.383"/>
</svg>
